<?xml version="1.0" encoding="UTF-8"?>
<svg width="54px" height="180px" viewBox="0 0 54 180" version="1.1" xmlns="http://www.w3.org/2000/svg" xmlns:xlink="http://www.w3.org/1999/xlink">
    <!-- Generator: Sketch 39.1 (31720) - http://www.bohemiancoding.com/sketch -->
    <title>Slice</title>
    <desc>Created with Sketch.</desc>
    <defs></defs>
    <g id="Page-1" stroke="none" stroke-width="1" fill="none" fill-rule="evenodd">
        <g id="wave3" transform="translate(0.000000, -43.000000)" fill="#27BDC8">
            <g id="Page-1">
                <g id="Water" transform="translate(0.000000, 43.000000)">
                    <path d="M2289.53528,5.107282 L2289.53528,5.107282 C2281.57529,-0.1606927 2270.83604,-0.1606927 2262.87606,5.107282 C2254.83906,10.4263465 2243.99572,10.4263465 2235.95872,5.107282 C2227.99874,-0.1606927 2217.2593,-0.1606927 2209.29951,5.107282 L2209.29932,5.107282 C2201.26232,10.4263465 2190.41898,10.4263465 2182.38198,5.107282 C2174.422,-0.1606927 2163.68274,-0.1606927 2155.72276,5.107282 C2147.68577,10.4263465 2136.84243,10.4263465 2128.80543,5.107282 L2128.80524,5.107282 C2120.84526,-0.1606927 2110.106,-0.1606927 2102.14602,5.107282 C2094.10902,10.4263465 2083.26568,10.4263465 2075.22868,5.107282 C2067.2687,-0.1606927 2056.52945,-0.1606927 2048.56947,5.107282 L2048.56928,5.107282 C2040.53228,10.4263465 2029.68894,10.4263465 2021.65194,5.107282 C2013.69196,-0.1606927 2002.95271,-0.1606927 1994.99273,5.107282 C1986.95573,10.4263465 1976.11239,10.4263465 1968.0752,5.107282 C1960.11522,-0.1606927 1949.37596,-0.1606927 1941.41598,5.107282 C1933.37899,10.4263465 1922.53564,10.4263465 1914.49865,5.107282 C1906.53867,-0.1606927 1895.79922,-0.1606927 1887.83924,5.107282 C1879.80224,10.4263465 1868.9589,10.4263465 1860.9219,5.107282 C1852.96192,-0.1606927 1842.22267,-0.1606927 1834.26269,5.107282 C1826.2255,10.4263465 1815.38216,10.4263465 1807.34516,5.107282 C1799.38518,-0.1606927 1788.64593,-0.1606927 1780.68594,5.107282 C1772.64895,10.4263465 1761.80561,10.4263465 1753.76861,5.107282 L1752.60421,4.3367401 C1745.33947,-0.4712352 1735.53834,-0.4712352 1728.2736,4.3367401 L1728.2736,4.3367401 C1719.54117,10.1159947 1707.7599,10.1159947 1699.02765,4.3367401 L1699.02765,4.3367401 C1691.76273,-0.4712352 1681.96159,-0.4712352 1674.69705,4.3367401 L1674.69705,4.3367401 C1665.96461,10.1159947 1654.18316,10.1159947 1645.45091,4.3367401 L1645.45091,4.3367401 C1637.79271,0.5076694 1628.7787,0.5076694 1621.12031,4.3367401 L1621.12031,4.3367401 C1612.53676,10.0176277 1600.9711,10.0694801 1592.32731,4.4657992 L1592.32731,4.4657992 C1584.77738,-0.4285332 1574.67542,-0.383353 1567.17812,4.5786544 C1558.81323,10.1146603 1547.54229,10.1651782 1539.11868,4.7042821 L1539.11868,4.7042821 C1531.34857,-0.332835 1520.95208,-0.2861297 1513.23612,4.8203781 L1513.23612,4.8203781 C1505.08969,10.2118835 1494.11329,10.261067 1485.91006,4.9429556 L1483.35459,3.2863478 C1476.91188,-0.8902483 1468.27495,-0.7943595 1461.94414,3.5244495 L1454.56979,8.5550851 C1449.64358,11.8153045 1442.99765,11.8153045 1438.07163,8.5550851 L1434.31707,6.070364 C1425.48817,0.2272471 1413.57651,0.2272471 1404.74761,6.070364 C1397.57953,10.8142864 1387.90859,10.8142864 1380.74032,6.070364 L1379.94556,5.5442147 C1371.59135,0.0152623 1360.32003,0.0152623 1351.96563,5.5442147 C1344.32286,10.6023016 1334.01158,10.6023016 1326.36901,5.5442147 L1326.36882,5.5442147 C1318.01461,0.0152623 1306.74329,0.0152623 1298.38907,5.5442147 L1293.81039,8.5745297 C1288.90191,11.8231205 1282.27943,11.8231205 1277.37076,8.5745297 L1277.37076,8.5743391 C1266.28226,1.2358906 1251.32215,1.2358906 1240.23384,8.5743391 L1240.23384,8.5745297 C1235.32517,11.8231205 1228.70269,11.8231205 1223.79402,8.5745297 L1218.73417,5.2258562 C1210.66743,-0.1130342 1199.78387,-0.1130342 1191.71694,5.2258562 L1191.71694,5.2258562 C1184.41313,12.5296094 1172.46143,12.5296094 1165.15762,5.2258562 L1165.15762,5.2258562 C1157.09069,-0.1130342 1146.20713,-0.1130342 1138.1402,5.2258562 L1135.76603,6.7970601 C1129.25354,11.1070999 1120.46753,11.1070999 1113.95505,6.7970601 C1104.47037,0.5200606 1091.67396,0.5200606 1082.18928,6.7970601 L1082.18928,6.7970601 C1075.67699,11.1070999 1066.89079,11.1070999 1060.3785,6.7970601 L1059.65351,6.3172348 C1050.60176,0.326758 1038.38928,0.326758 1029.33753,6.3172348 L1029.33753,6.3172348 C1022.3923,10.9137972 1013.022,10.9137972 1006.07677,6.3172348 C997.025017,0.326758 984.812723,0.326758 975.760782,6.3172348 C968.815554,10.9137972 959.445252,10.9137972 952.500214,6.3172348 L952.500024,6.3172348 C943.448274,0.326758 931.23598,0.326758 922.18423,6.3172348 C915.239001,10.9137972 905.8687,10.9137972 898.923471,6.3172348 C889.871531,0.326758 877.659237,0.326758 868.607487,6.3172348 L867.962758,6.7440639 C861.402422,11.0857489 852.551793,11.0857489 845.991457,6.7440639 L845.991457,6.7438732 C836.554624,0.498519 823.822848,0.498519 814.386206,6.7438732 L814.386206,6.7440639 C807.82587,11.0857489 798.97505,11.0857489 792.414714,6.7440639 L789.597885,4.8796652 C781.724644,-0.3309287 771.499533,-0.3309287 763.626291,4.8796652 L763.282385,5.107282 C755.245387,10.4263465 744.402046,10.4263465 736.365049,5.107282 C728.405068,-0.1606927 717.665623,-0.1606927 709.705833,5.107282 L709.705833,5.107282 C701.668644,10.4263465 690.825303,10.4263465 682.788306,5.107282 L682.788306,5.107282 C674.828325,-0.1606927 664.08907,-0.1606927 656.12909,5.107282 L656.12909,5.107282 C648.092092,10.4263465 637.248751,10.4263465 629.211563,5.107282 L629.211563,5.107282 C621.251582,-0.1606927 610.512327,-0.1606927 602.552347,5.107282 L602.552347,5.107282 C594.515349,10.4263465 583.672008,10.4263465 575.63501,5.107282 L575.63482,5.107282 C567.675029,-0.1606927 556.935775,-0.1606927 548.975604,5.107282 C540.938606,10.4263465 530.095265,10.4263465 522.058267,5.107282 C514.098286,-0.1606927 503.359032,-0.1606927 495.399051,5.107282 C487.362054,10.4263465 476.518522,10.4263465 468.481524,5.107282 C460.521543,-0.1606927 449.782289,-0.1606927 441.822308,5.107282 C433.785311,10.4263465 422.941969,10.4263465 414.904972,5.107282 C406.9448,-0.1606927 396.205546,-0.1606927 388.245565,5.107282 L388.245565,5.107282 C380.208568,10.4263465 369.365226,10.4263465 361.328229,5.107282 L361.328229,5.107282 C353.368248,-0.1606927 342.628994,-0.1606927 334.669013,5.107282 L334.669013,5.107282 C326.631824,10.4263465 315.788483,10.4263465 307.751486,5.107282 L307.751486,5.107282 C299.791505,-0.1606927 289.052251,-0.1606927 281.09227,5.107282 L281.09227,5.107282 C273.055272,10.4263465 262.211931,10.4263465 254.174743,5.107282 L254.174743,5.107282 C246.214762,-0.1606927 235.475508,-0.1606927 227.515527,5.107282 C219.478529,10.4263465 208.635188,10.4263465 200.59819,5.107282 L199.433789,4.3367401 C192.169056,-0.4712352 182.367918,-0.4712352 175.103375,4.3367401 L175.103185,4.3367401 C166.37094,10.1159947 154.589672,10.1159947 145.857237,4.3367401 L145.857237,4.3367401 C138.592313,-0.4712352 128.791175,-0.4712352 121.526632,4.3367401 L121.526632,4.3367401 C112.794197,10.1159947 101.012929,10.1159947 92.2804939,4.3367401 L92.2804939,4.3367401 C85.0157603,-0.4712352 75.2144321,-0.4712352 67.9498892,4.3367401 L67.9498892,4.3367401 C59.3663399,10.0176277 47.8006812,10.0694801 39.1568912,4.4657992 L39.1568912,4.4657992 C31.606967,-0.4285332 21.5051975,-0.383353 14.0076981,4.5786544 C9.82534821,7.3466574 4.91629618,8.7432406 0,8.7653542 L0,242.203126 L2304.99981,242.203126 L2305,8.7653542 C2305,8.7653542 2297.57246,10.4263465 2289.53528,5.107282" id="Page-1-Copy-7"></path>
                </g>
            </g>
        </g>
    </g>
</svg>