<?xml version="1.0" encoding="UTF-8"?>
<svg width="54px" height="180px" viewBox="0 0 54 180" version="1.1" xmlns="http://www.w3.org/2000/svg" xmlns:xlink="http://www.w3.org/1999/xlink">
    <!-- Generator: Sketch 39.1 (31720) - http://www.bohemiancoding.com/sketch -->
    <title>Slice</title>
    <desc>Created with Sketch.</desc>
    <defs></defs>
    <g id="Page-1" stroke="none" stroke-width="1" fill="none" fill-rule="evenodd">
        <g id="wave2" transform="translate(0.000000, -122.000000)" fill="#24B8C7">
            <g id="Page-1">
                <g id="Water" transform="translate(0.000000, 121.000000)">
                    <path d="M2289.53528,4.888891 L2289.53528,4.888891 C2281.57529,-0.379084 2270.83604,-0.379084 2262.87606,4.888891 C2254.83906,10.207956 2243.99572,10.207956 2235.95872,4.888891 C2227.99874,-0.379084 2217.2593,-0.379084 2209.29951,4.888891 L2209.29932,4.888891 C2201.26232,10.207956 2190.41898,10.207956 2182.38198,4.888891 C2174.422,-0.379084 2163.68274,-0.379084 2155.72276,4.888891 C2147.68577,10.207956 2136.84243,10.207956 2128.80543,4.888891 L2128.80524,4.888891 C2120.84526,-0.379084 2110.106,-0.379084 2102.14602,4.888891 C2094.10902,10.207956 2083.26568,10.207956 2075.22868,4.888891 C2067.2687,-0.379084 2056.52945,-0.379084 2048.56947,4.888891 L2048.56928,4.888891 C2040.53228,10.207956 2029.68894,10.207956 2021.65194,4.888891 C2013.69196,-0.379084 2002.95271,-0.379084 1994.99273,4.888891 C1986.95573,10.207956 1976.11239,10.207956 1968.0752,4.888891 C1960.11522,-0.379084 1949.37596,-0.379084 1941.41598,4.888891 C1933.37899,10.207956 1922.53564,10.207956 1914.49865,4.888891 C1906.53867,-0.379084 1895.79922,-0.379084 1887.83924,4.888891 C1879.80224,10.207956 1868.9589,10.207956 1860.9219,4.888891 C1852.96192,-0.379084 1842.22267,-0.379084 1834.26269,4.888891 C1826.2255,10.207956 1815.38216,10.207956 1807.34516,4.888891 C1799.38518,-0.379084 1788.64593,-0.379084 1780.68594,4.888891 C1772.64895,10.207956 1761.80561,10.207956 1753.76861,4.888891 L1752.60421,4.118349 C1745.33947,-0.689626 1735.53834,-0.689626 1728.2736,4.118349 L1728.2736,4.118349 C1719.54117,9.897604 1707.7599,9.897604 1699.02765,4.118349 L1699.02765,4.118349 C1691.76273,-0.689626 1681.96159,-0.689626 1674.69705,4.118349 L1674.69705,4.118349 C1665.96461,9.897604 1654.18316,9.897604 1645.45091,4.118349 L1645.45091,4.118349 C1637.79271,0.289279 1628.7787,0.289279 1621.12031,4.118349 L1621.12031,4.118349 C1612.53676,9.799237 1600.9711,9.851089 1592.32731,4.247408 L1592.32731,4.247408 C1584.77738,-0.646924 1574.67542,-0.601744 1567.17812,4.360264 C1558.81323,9.896269 1547.54229,9.946787 1539.11868,4.485891 L1539.11868,4.485891 C1531.34857,-0.551226 1520.95208,-0.504521 1513.23612,4.601987 L1513.23612,4.601987 C1505.08969,9.993493 1494.11329,10.042676 1485.91006,4.724565 L1483.35459,3.067957 C1476.91188,-1.108639 1468.27495,-1.01275 1461.94414,3.306059 L1454.56979,8.336694 C1449.64358,11.596914 1442.99765,11.596914 1438.07163,8.336694 L1434.31707,5.851973 C1425.48817,0.008856 1413.57651,0.008856 1404.74761,5.851973 C1397.57953,10.595896 1387.90859,10.595896 1380.74032,5.851973 L1379.94556,5.325824 C1371.59135,-0.203128 1360.32003,-0.203128 1351.96563,5.325824 C1344.32286,10.383911 1334.01158,10.383911 1326.36901,5.325824 L1326.36882,5.325824 C1318.01461,-0.203128 1306.74329,-0.203128 1298.38907,5.325824 L1293.81039,8.356139 C1288.90191,11.60473 1282.27943,11.60473 1277.37076,8.356139 L1277.37076,8.355948 C1266.28226,1.0175 1251.32215,1.0175 1240.23384,8.355948 L1240.23384,8.356139 C1235.32517,11.60473 1228.70269,11.60473 1223.79402,8.356139 L1218.73417,5.007465 C1210.66743,-0.331425 1199.78387,-0.331425 1191.71694,5.007465 L1191.71694,5.007465 C1184.41313,12.311219 1172.46143,12.311219 1165.15762,5.007465 L1165.15762,5.007465 C1157.09069,-0.331425 1146.20713,-0.331425 1138.1402,5.007465 L1135.76603,6.578669 C1129.25354,10.888709 1120.46753,10.888709 1113.95505,6.578669 C1104.47037,0.30167 1091.67396,0.30167 1082.18928,6.578669 L1082.18928,6.578669 C1075.67699,10.888709 1066.89079,10.888709 1060.3785,6.578669 L1059.65351,6.098844 C1050.60176,0.108367 1038.38928,0.108367 1029.33753,6.098844 L1029.33753,6.098844 C1022.3923,10.695406 1013.022,10.695406 1006.07677,6.098844 C997.025017,0.108367 984.812723,0.108367 975.760782,6.098844 C968.815554,10.695406 959.445252,10.695406 952.500214,6.098844 L952.500024,6.098844 C943.448274,0.108367 931.23598,0.108367 922.18423,6.098844 C915.239001,10.695406 905.8687,10.695406 898.923471,6.098844 C889.871531,0.108367 877.659237,0.108367 868.607487,6.098844 L867.962758,6.525673 C861.402422,10.867358 852.551793,10.867358 845.991457,6.525673 L845.991457,6.525482 C836.554624,0.280128 823.822848,0.280128 814.386206,6.525482 L814.386206,6.525673 C807.82587,10.867358 798.97505,10.867358 792.414714,6.525673 L789.597885,4.661274 C781.724644,-0.549319 771.499533,-0.549319 763.626291,4.661274 L763.282385,4.888891 C755.245387,10.207956 744.402046,10.207956 736.365049,4.888891 C728.405068,-0.379084 717.665623,-0.379084 709.705833,4.888891 L709.705833,4.888891 C701.668644,10.207956 690.825303,10.207956 682.788306,4.888891 L682.788306,4.888891 C674.828325,-0.379084 664.08907,-0.379084 656.12909,4.888891 L656.12909,4.888891 C648.092092,10.207956 637.248751,10.207956 629.211563,4.888891 L629.211563,4.888891 C621.251582,-0.379084 610.512327,-0.379084 602.552347,4.888891 L602.552347,4.888891 C594.515349,10.207956 583.672008,10.207956 575.63501,4.888891 L575.63482,4.888891 C567.675029,-0.379084 556.935775,-0.379084 548.975604,4.888891 C540.938606,10.207956 530.095265,10.207956 522.058267,4.888891 C514.098286,-0.379084 503.359032,-0.379084 495.399051,4.888891 C487.362054,10.207956 476.518522,10.207956 468.481524,4.888891 C460.521543,-0.379084 449.782289,-0.379084 441.822308,4.888891 C433.785311,10.207956 422.941969,10.207956 414.904972,4.888891 C406.9448,-0.379084 396.205546,-0.379084 388.245565,4.888891 L388.245565,4.888891 C380.208568,10.207956 369.365226,10.207956 361.328229,4.888891 L361.328229,4.888891 C353.368248,-0.379084 342.628994,-0.379084 334.669013,4.888891 L334.669013,4.888891 C326.631824,10.207956 315.788483,10.207956 307.751486,4.888891 L307.751486,4.888891 C299.791505,-0.379084 289.052251,-0.379084 281.09227,4.888891 L281.09227,4.888891 C273.055272,10.207956 262.211931,10.207956 254.174743,4.888891 L254.174743,4.888891 C246.214762,-0.379084 235.475508,-0.379084 227.515527,4.888891 C219.478529,10.207956 208.635188,10.207956 200.59819,4.888891 L199.433789,4.118349 C192.169056,-0.689626 182.367918,-0.689626 175.103375,4.118349 L175.103185,4.118349 C166.37094,9.897604 154.589672,9.897604 145.857237,4.118349 L145.857237,4.118349 C138.592313,-0.689626 128.791175,-0.689626 121.526632,4.118349 L121.526632,4.118349 C112.794197,9.897604 101.012929,9.897604 92.2804939,4.118349 L92.2804939,4.118349 C85.0157603,-0.689626 75.2144321,-0.689626 67.9498892,4.118349 L67.9498892,4.118349 C59.3663399,9.799237 47.8006812,9.851089 39.1568912,4.247408 L39.1568912,4.247408 C31.606967,-0.646924 21.5051975,-0.601744 14.0076981,4.360264 C9.82534821,7.128267 4.91629618,8.52485 0,8.546963 L0,241.984735 L2304.99981,241.984735 L2305,8.546963 C2305,8.546963 2297.57246,10.207956 2289.53528,4.888891" id="Page-1-Copy-6" transform="translate(1152.500000, 120.992368) scale(-1, 1) translate(-1152.500000, -120.992368) "></path>
                </g>
            </g>
        </g>
    </g>
</svg>