<?xml version="1.0" encoding="UTF-8" standalone="no"?><!DOCTYPE svg PUBLIC "-//W3C//DTD SVG 1.1//EN" "http://www.w3.org/Graphics/SVG/1.1/DTD/svg11.dtd"><svg width="100%" height="100%" viewBox="0 0 123 117" version="1.1" xmlns="http://www.w3.org/2000/svg" xmlns:xlink="http://www.w3.org/1999/xlink" xml:space="preserve" xmlns:serif="http://www.serif.com/" style="fill-rule:evenodd;clip-rule:evenodd;stroke-linejoin:round;stroke-miterlimit:2;"><path d="M122.88,25.916c0,-14.303 -11.613,-25.916 -25.916,-25.916l-71.048,0c-14.303,0 -25.916,11.613 -25.916,25.916l0,51.833c0,14.303 11.613,25.916 25.916,25.916l71.048,0c14.303,0 25.916,-11.613 25.916,-25.916l0,-51.833Z" style="fill:#fff;"/><path d="M24.44,0l74.01,0c6.68,0 12.77,2.75 17.19,7.17c4.47,4.47 7.24,10.65 7.24,17.45l0,67.35c0,6.8 -2.78,12.98 -7.25,17.45c-4.42,4.42 -10.51,7.17 -17.19,7.17l-74,0c-6.68,0 -12.77,-2.75 -17.19,-7.17c-4.48,-4.46 -7.25,-10.64 -7.25,-17.44l0,-67.36c0,-6.81 2.77,-12.99 7.24,-17.45c4.43,-4.42 10.51,-7.17 17.2,-7.17Zm47.8,46.95l-28.34,0c-0.85,0 -1.62,0.34 -2.17,0.9c-0.56,0.56 -0.9,1.33 -0.9,2.17c0,0.85 0.34,1.62 0.9,2.17c0.56,0.56 1.32,0.9 2.17,0.9l28.33,0l-9.53,10.92c-0.55,0.63 -0.8,1.43 -0.76,2.21c0.05,0.79 0.39,1.55 1.02,2.12c0.63,0.56 1.43,0.81 2.21,0.77c0.78,-0.05 1.54,-0.39 2.1,-1.02l14,-16.04c0.52,-0.59 0.77,-1.33 0.77,-2.06c-0.01,-0.73 -0.28,-1.46 -0.8,-2.02l-14,-16.03c-0.56,-0.61 -1.31,-0.95 -2.08,-1c-0.78,-0.05 -1.57,0.21 -2.2,0.77l-0.02,0.02c-0.62,0.56 -0.95,1.32 -1,2.09l0,0.01c-0.04,0.78 0.21,1.58 0.77,2.21l9.53,10.91Zm-67.31,35.9c0.85,3.45 2.55,6.55 4.83,9.01c3.36,3.62 7.99,5.87 13.1,5.87l77.17,0c0.21,0 0.41,0 0.62,-0.01l1.25,-0.09c4.36,-0.47 8.29,-2.6 11.23,-5.77c2.28,-2.46 3.97,-5.55 4.83,-9l0,-58.24c0,-5.28 -2.17,-10.09 -5.67,-13.58c-3.54,-3.54 -8.44,-5.74 -13.84,-5.74l-74.01,0c-5.4,0 -10.3,2.2 -13.84,5.74c-3.49,3.49 -5.66,8.3 -5.66,13.58l0,58.23l-0.01,0Z" style="fill-rule:nonzero;"/></svg>