<?xml version="1.0" encoding="UTF-8" standalone="no"?>
<svg width="1001px" height="151px" viewBox="0 0 1001 151" version="1.1" xmlns="http://www.w3.org/2000/svg" xmlns:xlink="http://www.w3.org/1999/xlink">
    <!-- Generator: Sketch 39.1 (31720) - http://www.bohemiancoding.com/sketch -->
    <title>Clouds</title>
    <desc>Created with Sketch.</desc>
    <defs></defs>
    <g id="Page-1" stroke="none" stroke-width="1" fill="none" fill-rule="evenodd" opacity="0.63">
        <g id="Panoramic" transform="translate(-170.000000, -77.000000)" fill="#FFFFFF">
            <g id="Clouds" transform="translate(170.000000, 77.000000)">
                <path d="M84.9293413,30.4417671 L103.497521,30.4417671 C109.697644,30.4417671 114.719272,25.4180064 114.719272,19.2208835 C114.719272,13.0223981 109.695123,8 103.497521,8 L11.2217504,8 C5.02162796,8 0,13.0237607 0,19.2208835 C0,25.419369 5.02414878,30.4417671 11.2217504,30.4417671 L19.5893673,30.4417671 C18.8081693,31.654463 18.3550835,33.0984463 18.3550835,34.6483233 C18.3550835,38.9346124 21.8378066,42.4251606 26.1339633,42.4251606 L78.3880397,42.4251606 C82.6874093,42.4251606 86.1669196,38.9433519 86.1669196,34.6483233 C86.1669196,33.0999567 85.7124513,31.6554281 84.9293413,30.4417671 Z" id="CL1"></path>
                <path d="M303.420801,105.648052 C303.351835,101.42085 299.893897,98 295.638288,98 L224.783564,98 C220.481414,98 217,101.481809 217,105.776837 C217,110.063126 220.48482,113.553675 224.783564,113.553675 L235.664076,113.553675 C235.462215,114.364244 235.355083,115.212296 235.355083,116.085386 C235.355083,121.851034 240.029265,126.522721 245.795159,126.522721 L315.92563,126.522721 C321.695837,126.522721 326.365706,121.849767 326.365706,116.085386 C326.365706,110.319738 321.691525,105.648052 315.92563,105.648052 L303.420801,105.648052 Z" id="Cl2"></path>
                <path d="M976.216782,79 C976.350815,78.4479654 976.421851,77.871327 976.421851,77.2781124 C976.421851,73.266701 973.161095,70 969.138748,70 L929.283103,70 C925.261537,70 922,73.2585219 922,77.2781124 C922,77.8710616 922.071246,78.4477392 922.205666,79 L908.438137,79 C902.664441,79 898,83.6729537 898,89.4373343 C898,95.2029823 902.673313,99.8746686 908.438137,99.8746686 L989.927569,99.8746686 C995.701265,99.8746686 1000.36571,95.2017149 1000.36571,89.4373343 C1000.36571,83.6716863 995.692393,79 989.927569,79 L976.216782,79 Z" id="Cl3"></path>
                <path d="M527.975572,23.7168675 L531.912578,23.7168675 C538.47218,23.7168675 543.77997,18.4076658 543.77997,11.8584337 C543.77997,5.30776163 538.466757,0 531.912578,0 L453.929607,0 C447.370005,0 442.062215,5.30920163 442.062215,11.8584337 C442.062215,12.245585 442.080774,12.6283948 442.117051,13.0060241 L427.538402,13.0060241 C419.508468,13.0060241 413,19.5140777 413,27.5421687 C413,35.5720248 419.509064,42.0783133 427.538402,42.0783133 L513.945665,42.0783133 C521.975598,42.0783133 528.484067,35.5702596 528.484067,27.5421687 C528.484067,26.2182046 528.307115,24.9356594 527.975572,23.7168675 Z" id="Cl5"></path>
                <path d="M600.381098,122.238186 L598.333388,122.238186 C590.420291,122.238186 584,128.655495 584,136.571646 C584,144.489538 590.417276,150.905107 598.333388,150.905107 L681.604112,150.905107 C689.517209,150.905107 695.9375,144.487798 695.9375,136.571646 C695.9375,128.653754 689.520224,122.238186 681.604112,122.238186 L680.238948,122.238186 C680.238948,116.582549 675.656217,112 670.003131,112 L610.616915,112 C604.961427,112 600.381098,116.583792 600.381098,122.238186 Z" id="Cl4"></path>
            </g>
        </g>
    </g>
</svg>