<?xml version="1.0" encoding="UTF-8"?>
<svg width="54px" height="180px" viewBox="0 0 54 180" version="1.1" xmlns="http://www.w3.org/2000/svg" xmlns:xlink="http://www.w3.org/1999/xlink">
    <!-- Generator: Sketch 39.1 (31720) - http://www.bohemiancoding.com/sketch -->
    <title>Slice</title>
    <desc>Created with Sketch.</desc>
    <defs></defs>
    <g id="Page-1" stroke="none" stroke-width="1" fill="none" fill-rule="evenodd">
        <g id="wave4" fill="#26C3C6">
            <g id="Page-1">
                <g id="Water">
                    <path d="M2289.53528,4.88889119 L2289.53528,4.88889119 C2281.57529,-0.379083505 2270.83604,-0.379083505 2262.87606,4.88889119 C2254.83906,10.2079557 2243.99572,10.2079557 2235.95872,4.88889119 C2227.99874,-0.379083505 2217.2593,-0.379083505 2209.29951,4.88889119 L2209.29932,4.88889119 C2201.26232,10.2079557 2190.41898,10.2079557 2182.38198,4.88889119 C2174.422,-0.379083505 2163.68274,-0.379083505 2155.72276,4.88889119 C2147.68577,10.2079557 2136.84243,10.2079557 2128.80543,4.88889119 L2128.80524,4.88889119 C2120.84526,-0.379083505 2110.106,-0.379083505 2102.14602,4.88889119 C2094.10902,10.2079557 2083.26568,10.2079557 2075.22868,4.88889119 C2067.2687,-0.379083505 2056.52945,-0.379083505 2048.56947,4.88889119 L2048.56928,4.88889119 C2040.53228,10.2079557 2029.68894,10.2079557 2021.65194,4.88889119 C2013.69196,-0.379083505 2002.95271,-0.379083505 1994.99273,4.88889119 C1986.95573,10.2079557 1976.11239,10.2079557 1968.0752,4.88889119 C1960.11522,-0.379083505 1949.37596,-0.379083505 1941.41598,4.88889119 C1933.37899,10.2079557 1922.53564,10.2079557 1914.49865,4.88889119 C1906.53867,-0.379083505 1895.79922,-0.379083505 1887.83924,4.88889119 C1879.80224,10.2079557 1868.9589,10.2079557 1860.9219,4.88889119 C1852.96192,-0.379083505 1842.22267,-0.379083505 1834.26269,4.88889119 C1826.2255,10.2079557 1815.38216,10.2079557 1807.34516,4.88889119 C1799.38518,-0.379083505 1788.64593,-0.379083505 1780.68594,4.88889119 C1772.64895,10.2079557 1761.80561,10.2079557 1753.76861,4.88889119 L1752.60421,4.11834933 C1745.33947,-0.689625981 1735.53834,-0.689625981 1728.2736,4.11834933 L1728.2736,4.11834933 C1719.54117,9.8976039 1707.7599,9.8976039 1699.02765,4.11834933 L1699.02765,4.11834933 C1691.76273,-0.689625981 1681.96159,-0.689625981 1674.69705,4.11834933 L1674.69705,4.11834933 C1665.96461,9.8976039 1654.18316,9.8976039 1645.45091,4.11834933 L1645.45091,4.11834933 C1637.79271,0.289278631 1628.7787,0.289278631 1621.12031,4.11834933 L1621.12031,4.11834933 C1612.53676,9.79923686 1600.9711,9.85108925 1592.32731,4.24740842 L1592.32731,4.24740842 C1584.77738,-0.646924008 1574.67542,-0.601743795 1567.17812,4.36026363 C1558.81323,9.89626947 1547.54229,9.94678742 1539.11868,4.48589132 L1539.11868,4.48589132 C1531.34857,-0.551225835 1520.95208,-0.504520552 1513.23612,4.60198731 L1513.23612,4.60198731 C1505.08969,9.99349271 1494.11329,10.0426762 1485.91006,4.72456484 L1483.35459,3.06795704 C1476.91188,-1.10863909 1468.27495,-1.01275029 1461.94414,3.30605867 L1454.56979,8.33669427 C1449.64358,11.5969137 1442.99765,11.5969137 1438.07163,8.33669427 L1434.31707,5.85197319 C1425.48817,0.00885629736 1413.57651,0.00885629736 1404.74761,5.85197319 C1397.57953,10.5958955 1387.90859,10.5958955 1380.74032,5.85197319 L1379.94556,5.32582388 C1371.59135,-0.203128499 1360.32003,-0.203128499 1351.96563,5.32582388 C1344.32286,10.3839107 1334.01158,10.3839107 1326.36901,5.32582388 L1326.36882,5.32582388 C1318.01461,-0.203128499 1306.74329,-0.203128499 1298.38907,5.32582388 L1293.81039,8.35613892 C1288.90191,11.6047297 1282.27943,11.6047297 1277.37076,8.35613892 L1277.37076,8.35594828 C1266.28226,1.01749978 1251.32215,1.01749978 1240.23384,8.35594828 L1240.23384,8.35613892 C1235.32517,11.6047297 1228.70269,11.6047297 1223.79402,8.35613892 L1218.73417,5.00746542 C1210.66743,-0.331425053 1199.78387,-0.331425053 1191.71694,5.00746542 L1191.71694,5.00746542 C1184.41313,12.3112186 1172.46143,12.3112186 1165.15762,5.00746542 L1165.15762,5.00746542 C1157.09069,-0.331425053 1146.20713,-0.331425053 1138.1402,5.00746542 L1135.76603,6.57866928 C1129.25354,10.8887091 1120.46753,10.8887091 1113.95505,6.57866928 C1104.47037,0.301669829 1091.67396,0.301669829 1082.18928,6.57866928 L1082.18928,6.57866928 C1075.67699,10.8887091 1066.89079,10.8887091 1060.3785,6.57866928 L1059.65351,6.09884398 C1050.60176,0.108367146 1038.38928,0.108367146 1029.33753,6.09884398 L1029.33753,6.09884398 C1022.3923,10.6954064 1013.022,10.6954064 1006.07677,6.09884398 C997.025017,0.108367146 984.812723,0.108367146 975.760782,6.09884398 C968.815554,10.6954064 959.445252,10.6954064 952.500214,6.09884398 L952.500024,6.09884398 C943.448274,0.108367146 931.23598,0.108367146 922.18423,6.09884398 C915.239001,10.6954064 905.8687,10.6954064 898.923471,6.09884398 C889.871531,0.108367146 877.659237,0.108367146 868.607487,6.09884398 L867.962758,6.52567308 C861.402422,10.8673581 852.551793,10.8673581 845.991457,6.52567308 L845.991457,6.52548244 C836.554624,0.280128208 823.822848,0.280128208 814.386206,6.52548244 L814.386206,6.52567308 C807.82587,10.8673581 798.97505,10.8673581 792.414714,6.52567308 L789.597885,4.66127442 C781.724644,-0.549319497 771.499533,-0.549319497 763.626291,4.66127442 L763.282385,4.88889119 C755.245387,10.2079557 744.402046,10.2079557 736.365049,4.88889119 C728.405068,-0.379083505 717.665623,-0.379083505 709.705833,4.88889119 L709.705833,4.88889119 C701.668644,10.2079557 690.825303,10.2079557 682.788306,4.88889119 L682.788306,4.88889119 C674.828325,-0.379083505 664.08907,-0.379083505 656.12909,4.88889119 L656.12909,4.88889119 C648.092092,10.2079557 637.248751,10.2079557 629.211563,4.88889119 L629.211563,4.88889119 C621.251582,-0.379083505 610.512327,-0.379083505 602.552347,4.88889119 L602.552347,4.88889119 C594.515349,10.2079557 583.672008,10.2079557 575.63501,4.88889119 L575.63482,4.88889119 C567.675029,-0.379083505 556.935775,-0.379083505 548.975604,4.88889119 C540.938606,10.2079557 530.095265,10.2079557 522.058267,4.88889119 C514.098286,-0.379083505 503.359032,-0.379083505 495.399051,4.88889119 C487.362054,10.2079557 476.518522,10.2079557 468.481524,4.88889119 C460.521543,-0.379083505 449.782289,-0.379083505 441.822308,4.88889119 C433.785311,10.2079557 422.941969,10.2079557 414.904972,4.88889119 C406.9448,-0.379083505 396.205546,-0.379083505 388.245565,4.88889119 L388.245565,4.88889119 C380.208568,10.2079557 369.365226,10.2079557 361.328229,4.88889119 L361.328229,4.88889119 C353.368248,-0.379083505 342.628994,-0.379083505 334.669013,4.88889119 L334.669013,4.88889119 C326.631824,10.2079557 315.788483,10.2079557 307.751486,4.88889119 L307.751486,4.88889119 C299.791505,-0.379083505 289.052251,-0.379083505 281.09227,4.88889119 L281.09227,4.88889119 C273.055272,10.2079557 262.211931,10.2079557 254.174743,4.88889119 L254.174743,4.88889119 C246.214762,-0.379083505 235.475508,-0.379083505 227.515527,4.88889119 C219.478529,10.2079557 208.635188,10.2079557 200.59819,4.88889119 L199.433789,4.11834933 C192.169056,-0.689625981 182.367918,-0.689625981 175.103375,4.11834933 L175.103185,4.11834933 C166.37094,9.8976039 154.589672,9.8976039 145.857237,4.11834933 L145.857237,4.11834933 C138.592313,-0.689625981 128.791175,-0.689625981 121.526632,4.11834933 L121.526632,4.11834933 C112.794197,9.8976039 101.012929,9.8976039 92.2804939,4.11834933 L92.2804939,4.11834933 C85.0157603,-0.689625981 75.2144321,-0.689625981 67.9498892,4.11834933 L67.9498892,4.11834933 C59.3663399,9.79923686 47.8006812,9.85108925 39.1568912,4.24740842 L39.1568912,4.24740842 C31.606967,-0.646924008 21.5051975,-0.601743795 14.0076981,4.36026363 C9.82534821,7.12826655 4.91629618,8.52484984 0,8.54696336 L0,241.984735 L2304.99981,241.984735 L2305,8.54696336 C2305,8.54696336 2297.57246,10.2079557 2289.53528,4.88889119" id="Page-1-Copy-8" transform="translate(1152.500000, 120.992368) scale(-1, 1) translate(-1152.500000, -120.992368) "></path>
                </g>
            </g>
        </g>
    </g>
</svg>