<?xml version="1.0" encoding="UTF-8" standalone="no"?><!DOCTYPE svg PUBLIC "-//W3C//DTD SVG 1.1//EN" "http://www.w3.org/Graphics/SVG/1.1/DTD/svg11.dtd"><svg width="100%" height="100%" viewBox="0 0 123 117" version="1.1" xmlns="http://www.w3.org/2000/svg" xmlns:xlink="http://www.w3.org/1999/xlink" xml:space="preserve" xmlns:serif="http://www.serif.com/" style="fill-rule:evenodd;clip-rule:evenodd;stroke-linejoin:round;stroke-miterlimit:2;"><path d="M122.88,25.916c0,-14.303 -11.613,-25.916 -25.916,-25.916l-71.048,0c-14.303,0 -25.916,11.613 -25.916,25.916l0,51.833c0,14.303 11.613,25.916 25.916,25.916l71.048,0c14.303,0 25.916,-11.613 25.916,-25.916l0,-51.833Z" style="fill:#fff;"/><path d="M24.44,0l74.01,0c6.68,0 12.77,2.75 17.19,7.17c4.47,4.47 7.24,10.65 7.24,17.45l0,67.35c0,6.8 -2.78,12.98 -7.25,17.45c-4.42,4.42 -10.51,7.17 -17.19,7.17l-74,0c-6.68,0 -12.77,-2.75 -17.19,-7.17c-4.48,-4.46 -7.25,-10.64 -7.25,-17.44l0,-67.36c0,-6.81 2.77,-12.99 7.24,-17.45c4.43,-4.42 10.51,-7.17 17.2,-7.17Zm-19.51,82.85c0.85,3.45 2.55,6.55 4.83,9.01c3.36,3.62 7.99,5.87 13.1,5.87l77.17,0c0.21,0 0.41,0 0.62,-0.01l1.25,-0.09c4.36,-0.47 8.29,-2.6 11.23,-5.77c2.28,-2.46 3.97,-5.55 4.83,-9l0,-58.24c0,-5.28 -2.17,-10.09 -5.67,-13.58c-3.54,-3.54 -8.44,-5.74 -13.84,-5.74l-74.01,0c-5.4,0 -10.3,2.2 -13.84,5.74c-3.49,3.49 -5.66,8.3 -5.66,13.58l0,58.23l-0.01,0Z" style="fill-rule:nonzero;"/><path d="M82.392,31.232l0,14.62l-14.621,0l-1.723,0l1.217,-1.221l4.262,-4.262c-0.279,-0.271 -0.573,-0.536 -0.879,-0.785c-0.401,-0.328 -0.826,-0.64 -1.258,-0.923c-2.24,-1.463 -4.916,-2.311 -7.794,-2.311l-0.003,0l0,-0.004c-3.942,0 -7.512,1.6 -10.095,4.183c-2.583,2.584 -4.183,6.153 -4.183,10.091l0.003,0l0,0.019l-0.003,0c0,3.941 1.6,7.515 4.183,10.094c2.583,2.583 6.153,4.184 10.091,4.184l0,-0.004l0.03,0l0,0.004c1.377,0 2.75,-0.201 4.068,-0.592c0.726,-0.216 1.44,-0.495 2.125,-0.826c3.495,-1.69 6.198,-4.765 7.396,-8.513l0.16,-0.495l8.788,0l-0.175,0.856l-0.004,0.022l0,0.004c-0.301,1.43 -0.748,2.836 -1.317,4.184l0,0.004c-0.559,1.321 -1.255,2.598 -2.055,3.792c-4.102,6.116 -11.084,10.147 -19.001,10.147l-0.008,0l0,-0.004c-6.312,0 -12.033,-2.561 -16.165,-6.696l0,-0.004c-4.139,-4.124 -6.696,-9.837 -6.7,-16.146l-0.003,0l0,-0.019l0.003,0c0,-6.312 2.561,-12.03 6.7,-16.165c4.132,-4.131 9.845,-6.688 16.154,-6.692l0,-0.004l0.022,0l0,0.004c3.242,0 6.332,0.681 9.123,1.898c0.451,0.197 0.905,0.409 1.34,0.637c2.04,1.053 3.897,2.404 5.52,3.997l3.577,-3.577l1.217,-1.217l0,1.72l0.008,0Z"/></svg>