<?xml version="1.0" encoding="UTF-8" standalone="no"?><!DOCTYPE svg PUBLIC "-//W3C//DTD SVG 1.1//EN" "http://www.w3.org/Graphics/SVG/1.1/DTD/svg11.dtd"><svg width="100%" height="100%" viewBox="0 0 123 117" version="1.1" xmlns="http://www.w3.org/2000/svg" xmlns:xlink="http://www.w3.org/1999/xlink" xml:space="preserve" xmlns:serif="http://www.serif.com/" style="fill-rule:evenodd;clip-rule:evenodd;stroke-linejoin:round;stroke-miterlimit:2;"><path d="M122.88,25.916c0,-14.303 -11.613,-25.916 -25.916,-25.916l-71.048,0c-14.303,0 -25.916,11.613 -25.916,25.916l0,51.833c0,14.303 11.613,25.916 25.916,25.916l71.048,0c14.303,0 25.916,-11.613 25.916,-25.916l0,-51.833Z" style="fill:#fff;"/><path d="M24.44,0l74.01,0c6.68,0 12.77,2.75 17.19,7.17c4.47,4.47 7.24,10.65 7.24,17.45l0,67.35c0,6.8 -2.78,12.98 -7.25,17.45c-4.42,4.42 -10.51,7.17 -17.19,7.17l-74,0c-6.68,0 -12.77,-2.75 -17.19,-7.17c-4.48,-4.46 -7.25,-10.64 -7.25,-17.44l0,-67.36c0,-6.81 2.77,-12.99 7.24,-17.45c4.43,-4.42 10.51,-7.17 17.2,-7.17Zm-19.51,82.85c0.85,3.45 2.55,6.55 4.83,9.01c3.36,3.62 7.99,5.87 13.1,5.87l77.17,0c0.21,0 0.41,0 0.62,-0.01l1.25,-0.09c4.36,-0.47 8.29,-2.6 11.23,-5.77c2.28,-2.46 3.97,-5.55 4.83,-9l0,-58.24c0,-5.28 -2.17,-10.09 -5.67,-13.58c-3.54,-3.54 -8.44,-5.74 -13.84,-5.74l-74.01,0c-5.4,0 -10.3,2.2 -13.84,5.74c-3.49,3.49 -5.66,8.3 -5.66,13.58l0,58.23l-0.01,0Z" style="fill-rule:nonzero;"/><path d="M79.256,70.102l-2.254,0c-0.148,0 -0.271,-0.118 -0.271,-0.266l0,-16.093l0,-0.037c0,-0.333 -0.062,-0.611 -0.181,-0.822c-0.022,-0.04 -0.052,-0.081 -0.074,-0.114c-0.022,-0.034 -0.059,-0.067 -0.085,-0.1l-0.007,-0.008c-0.112,-0.111 -0.252,-0.196 -0.415,-0.255l-0.093,-0.026l-0.014,-0.004l-0.004,0c-0.152,-0.04 -0.326,-0.063 -0.511,-0.063l-0.018,0l-0.03,0l-22.969,0c-0.33,0 -0.6,0.063 -0.807,0.182l-0.008,0.003l-0.1,0.063l-0.014,0.015c-0.034,0.026 -0.067,0.056 -0.1,0.085l-0.008,0.008l-0.003,0.003c-0.23,0.234 -0.341,0.581 -0.341,1.044l0,16.13c0,0.148 -0.122,0.266 -0.27,0.266l-3.646,0c-0.07,0 -0.14,-0.029 -0.189,-0.077l-4.463,-4.475c-0.067,-0.052 -0.108,-0.133 -0.108,-0.218l0,-32.538l0,-0.029c0,-0.307 0.056,-0.563 0.163,-0.766c0.019,-0.041 0.041,-0.074 0.063,-0.108l0.008,-0.011c0.026,-0.04 0.07,-0.066 0.092,-0.107l0.004,-0.008l0.007,-0.007c0.093,-0.092 0.211,-0.166 0.341,-0.218l0.015,-0.008l0.007,-0.003l0.007,-0.004l0.067,-0.022l0.004,-0.004c0.155,-0.052 0.333,-0.074 0.533,-0.078l0.033,-0.003l9.701,0c0.148,0 0.27,0.118 0.27,0.266l0,10.641c0,0.192 0.018,0.381 0.048,0.555c0.033,0.17 0.056,0.363 0.144,0.496l0.004,0.008l0,0.003c0.067,0.163 0.156,0.322 0.248,0.463c0.089,0.137 0.207,0.285 0.333,0.418l0.008,0.007l0,0.004l0.003,0c0.178,0.185 0.348,0.426 0.6,0.47l0.007,0l0.004,0.004l0.118,0.063l0.148,0.066l0.004,0c0.122,0.052 0.248,0.097 0.37,0.126l0.03,0l0.096,0.019c0.167,0.033 0.344,0.052 0.526,0.052l17.699,0c0.381,0 0.733,-0.067 1.055,-0.197l0.003,-0.003c0.322,-0.133 0.618,-0.333 0.885,-0.596l0.011,-0.011c0.133,-0.133 0.255,-0.278 0.355,-0.43c0.097,-0.14 0.215,-0.281 0.245,-0.451l0,-0.004l0.003,-0.003l0.004,-0.008c0.067,-0.159 0.126,-0.326 0.152,-0.496l0,-0.011c0.033,-0.174 0.048,-0.359 0.048,-0.551l0,-10.63c0,-0.148 0.122,-0.27 0.27,-0.27l2.221,0c0.214,0 0.403,0.025 0.57,0.077c0.177,0.056 0.329,0.145 0.444,0.259c0.252,0.248 0.326,0.618 0.333,0.959l0.004,0.033l0,35.998c0,0.207 -0.026,0.396 -0.078,0.559l-0.004,0.011l0,0.007l-0.029,0.082l-0.008,0.022l-0.033,0.074l-0.004,0.015l-0.007,0.015l-0.011,0.022l-0.056,0.081l-0.018,0.03l-0.052,0.063l-0.022,0.026c-0.056,0.059 -0.122,0.111 -0.196,0.155c-0.063,0.037 -0.134,0.071 -0.204,0.096l-0.022,0.008c-0.059,0.018 -0.126,0.037 -0.196,0.052l-0.008,0l-0.004,0l-0.007,0l-0.033,0.003l-0.008,0l-0.007,0c-0.081,0.011 -0.181,0.019 -0.281,0.023l-0.037,0l0,0.003Zm-20.568,-3.423c-0.614,0 -1.11,-0.496 -1.11,-1.111c0,-0.614 0.496,-1.11 1.11,-1.11l11.518,0c0.615,0 1.111,0.496 1.111,1.11c0,0.615 -0.496,1.111 -1.111,1.111l-11.518,0Zm0,-5.7c-0.614,0 -1.11,-0.496 -1.11,-1.111c0,-0.614 0.496,-1.11 1.11,-1.11l11.518,0c0.615,0 1.111,0.496 1.111,1.11c0,0.615 -0.496,1.111 -1.111,1.111l-11.518,0Zm14.842,-29.476l-16.774,-0.074l0,9.571l-0.004,0c0,0.17 0.023,0.318 0.063,0.444c0.011,0.022 0.015,0.037 0.026,0.056c0.034,0.085 0.082,0.162 0.148,0.225l0.011,0.011c0.023,0.023 0.041,0.037 0.063,0.056c0.023,0.018 0.048,0.033 0.074,0.052c0.145,0.085 0.341,0.126 0.585,0.126l14.842,0.092c0.337,0 0.581,-0.078 0.733,-0.233c0.155,-0.159 0.233,-0.407 0.233,-0.748l0,-9.578Zm-19.291,23.628l19.643,0c0.129,0 0.24,0.107 0.24,0.237l0,14.497c0,0.13 -0.107,0.241 -0.24,0.241l-19.643,0c-0.129,0 -0.24,-0.107 -0.24,-0.237l0,-14.497c0,-0.134 0.111,-0.241 0.24,-0.241Zm-11.929,-27.104l38.589,0c1.817,0 3.253,1.429 3.253,3.254l0,38.94c0,1.832 -1.443,3.286 -3.253,3.286l-35.757,0l-0.089,-0.092l-5.937,-5.933l-0.388,-0.259l0,-35.954c0,-2.028 1.78,-3.242 3.582,-3.242Z"/></svg>