<?xml version="1.0" encoding="UTF-8" standalone="no"?>
<!-- Created with Inkscape (http://www.inkscape.org/) -->

<svg
   width="89.497421mm"
   height="50.915829mm"
   viewBox="0 0 89.497419 50.915829"
   version="1.1"
   id="svg5"
   inkscape:version="1.1 (c68e22c387, 2021-05-23)"
   sodipodi:docname="eye.svg"
   xmlns:inkscape="http://www.inkscape.org/namespaces/inkscape"
   xmlns:sodipodi="http://sodipodi.sourceforge.net/DTD/sodipodi-0.dtd"
   xmlns="http://www.w3.org/2000/svg"
   xmlns:svg="http://www.w3.org/2000/svg">
  <sodipodi:namedview
     id="namedview7"
     pagecolor="#000000"
     bordercolor="#666666"
     borderopacity="1.0"
     inkscape:pageshadow="2"
     inkscape:pageopacity="0"
     inkscape:pagecheckerboard="true"
     inkscape:document-units="mm"
     showgrid="false"
     inkscape:zoom="2.1997092"
     inkscape:cx="217.07415"
     inkscape:cy="47.278977"
     inkscape:window-width="2012"
     inkscape:window-height="964"
     inkscape:window-x="280"
     inkscape:window-y="319"
     inkscape:window-maximized="0"
     inkscape:current-layer="layer1"
     fit-margin-top="0"
     fit-margin-left="0"
     fit-margin-right="0"
     fit-margin-bottom="0" />
  <defs
     id="defs2" />
  <g
     inkscape:label="Layer 1"
     inkscape:groupmode="layer"
     id="layer1"
     transform="translate(-36.09588,-49.024384)">
    <path
       id="path75"
       style="fill:#ffffff;fill-opacity:1;stroke:none;stroke-width:47.2312;stroke-linecap:round;stroke-linejoin:round;stroke-miterlimit:4;stroke-dasharray:none;stroke-opacity:1"
       d="M 169.00391 0 A 249.38887 362.15239 0 0 0 0 96.21875 A 249.38887 362.15239 0 0 0 169.00391 192.4375 A 249.38887 362.15239 0 0 0 338.25781 96.21875 A 249.38887 362.15239 0 0 0 169.00391 0 z M 169.22461 23.226562 A 71.221417 71.223262 0 0 1 240.44531 94.451172 A 71.221417 71.223262 0 0 1 169.22461 165.67383 A 71.221417 71.223262 0 0 1 98.003906 94.451172 A 71.221417 71.223262 0 0 1 169.22461 23.226562 z "
       transform="matrix(0.26458333,0,0,0.26458333,36.09588,49.024384)" />
  </g>
</svg>
