<svg xmlns="http://www.w3.org/2000/svg" viewBox="0 9 179.8 72"><style>.a{fill:#0092C3;}.b{fill:#F08119;}.c{fill:#333;}</style><rect x="25.8" y="12.9" width="20.5" height="20.5" class="a"/><rect x="3.7" y="12.9" width="20.5" height="20.5" class="a"/><rect x="3.7" y="35" width="20.5" height="20.5" class="b"/><rect x="3.7" y="57.1" width="20.5" height="20.5" class="c"/><polygon points="25.8 35.1 25.8 55.5 38.7 45.3 " class="b"/><path d="M65.7 65.4H58v12.2h-4.7v-27h15.4v4.1H58v6.5h7.7V65.4z" class="c"/><path d="M82 77.6L81.7 75h-0.2c-0.7 0.9-1.7 1.7-3 2.2 -1.3 0.6-2.6 0.8-3.9 0.8 -1.7 0-3.1-0.5-4-1.5 -1-1-1.5-2.3-1.5-3.9 0-1.1 0.2-2.1 0.7-3 0.5-0.9 1.2-1.6 2.1-2.2 0.9-0.6 2-1.1 3.2-1.4 1.3-0.3 2.7-0.5 4.2-0.5h1.8v-0.6c0-1.1-0.3-1.8-1-2.3 -0.7-0.5-1.8-0.7-3.3-0.7 -2 0-3.8 0.4-5.4 1.3l-0.9-3.4c1.8-1.1 4-1.6 6.6-1.6 2.7 0 4.8 0.6 6.2 1.7 0.7 0.5 1.2 1.2 1.6 2 0.4 0.8 0.6 1.8 0.6 2.9v12.8H82zM76.4 74.5c0.9 0 1.7-0.2 2.6-0.6 0.9-0.4 1.6-1 2.1-1.7v-3.7h-0.8c-2.2 0-3.9 0.3-4.9 0.9 -1 0.6-1.5 1.5-1.5 2.7C74 73.7 74.8 74.5 76.4 74.5z" class="c"/><path d="M103.2 77.6V65.2c0-2.2-0.9-3.3-2.7-3.3 -0.4 0-0.9 0.1-1.4 0.2 -0.5 0.2-1 0.4-1.5 0.7 -0.5 0.3-0.9 0.7-1.3 1.2 -0.4 0.5-0.7 1-0.8 1.6v12h-4.5V58.8h3.5l0.2 2.8h0.2c0.5-1.1 1.4-2 2.6-2.6 1.2-0.6 2.4-0.8 3.8-0.8 1.3 0 2.4 0.3 3.5 0.8 1 0.5 1.8 1.4 2.3 2.6 0.5-1.1 1.4-2 2.6-2.5 1.2-0.6 2.4-0.8 3.8-0.8 0.9 0 1.7 0.1 2.5 0.3 0.8 0.2 1.5 0.6 2 1.1 0.6 0.5 1 1.2 1.4 2 0.3 0.8 0.5 1.9 0.5 3.1v12.8h-4.5V65.2c0-2.2-0.9-3.3-2.7-3.3 -0.4 0-0.9 0.1-1.4 0.2 -0.5 0.2-1 0.4-1.5 0.7 -0.5 0.3-0.9 0.7-1.3 1.2 -0.4 0.5-0.7 1-0.8 1.6v12H103.2z" class="c"/><path d="M133.5 58.2c1.7 0 3.1 0.3 4.3 0.8 1.2 0.6 2.2 1.3 3 2.2 0.8 0.9 1.3 2 1.7 3.2 0.4 1.2 0.6 2.5 0.6 3.8 0 1.3-0.2 2.6-0.6 3.8 -0.4 1.2-0.9 2.2-1.7 3.1 -0.8 0.9-1.8 1.6-2.9 2.1 -1.2 0.5-2.6 0.8-4.2 0.8 -1.7 0-3.1-0.3-4.3-0.8 -1.2-0.5-2.2-1.3-3-2.2 -0.8-0.9-1.4-2-1.8-3.2 -0.4-1.2-0.6-2.5-0.6-3.8 0-1.3 0.2-2.6 0.6-3.8 0.4-1.2 1-2.2 1.7-3.2 0.8-0.9 1.8-1.6 3-2.2C130.5 58.5 131.9 58.2 133.5 58.2zM133.6 74.7c0.8 0 1.5-0.2 2.1-0.5 0.6-0.3 1.1-0.8 1.5-1.4 0.4-0.6 0.7-1.3 0.8-2 0.2-0.8 0.3-1.6 0.3-2.4 0-0.9-0.1-1.7-0.3-2.5 -0.2-0.8-0.5-1.5-0.9-2.1 -0.4-0.6-0.9-1.1-1.5-1.5 -0.6-0.4-1.3-0.6-2.2-0.6 -0.8 0-1.5 0.2-2 0.5 -0.6 0.3-1 0.8-1.4 1.4 -0.4 0.6-0.6 1.2-0.8 2 -0.2 0.8-0.3 1.6-0.3 2.4 0 0.9 0.1 1.7 0.3 2.5 0.2 0.8 0.5 1.5 0.9 2.1 0.4 0.6 0.9 1.1 1.5 1.5C132.1 74.5 132.8 74.7 133.6 74.7z" class="c"/><path d="M157.9 78.1c-1.5 0-2.7-0.3-3.7-0.9 -1-0.6-1.8-1.3-2.6-2.2h-0.2l-0.3 2.6h-3.6V47.4h4.5v13.3c0.6-0.8 1.5-1.4 2.5-1.8 1-0.4 2.2-0.7 3.5-0.7 1.4 0 2.7 0.3 3.7 0.8 1.1 0.5 1.9 1.3 2.7 2.2 0.7 0.9 1.2 1.9 1.6 3.1 0.3 1.2 0.5 2.4 0.5 3.7 0 1.4-0.2 2.8-0.6 4 -0.4 1.2-1 2.3-1.7 3.2 -0.7 0.9-1.7 1.6-2.7 2.1C160.4 77.8 159.2 78.1 157.9 78.1zM157.3 74.7c0.8 0 1.5-0.2 2.1-0.6 0.6-0.4 1.1-0.9 1.5-1.5 0.4-0.6 0.7-1.3 0.9-2.1 0.2-0.8 0.3-1.6 0.3-2.4 0-0.8-0.1-1.7-0.3-2.4 -0.2-0.8-0.5-1.5-0.9-2.1 -0.4-0.6-1-1.1-1.6-1.4 -0.6-0.3-1.4-0.5-2.2-0.5 -0.8 0-1.6 0.2-2.4 0.6 -0.8 0.4-1.7 1.1-2.5 2.1v7.8c0.3 0.4 0.7 0.8 1.1 1.1s0.9 0.6 1.4 0.8c0.5 0.2 1 0.4 1.5 0.5S156.9 74.7 157.3 74.7z" class="c"/><path d="M170.4 52.8c0-0.4 0.1-0.7 0.2-1.1 0.1-0.4 0.4-0.7 0.6-1 0.3-0.3 0.6-0.5 0.9-0.7 0.3-0.2 0.7-0.2 1.1-0.2 0.4 0 0.7 0.1 1.1 0.2 0.4 0.2 0.7 0.4 1 0.7 0.3 0.3 0.5 0.6 0.7 1 0.2 0.4 0.2 0.7 0.2 1.1 0 0.4-0.1 0.8-0.2 1.1 -0.2 0.3-0.4 0.6-0.7 0.9 -0.3 0.3-0.6 0.5-1 0.6 -0.4 0.1-0.7 0.2-1.1 0.2 -0.8 0-1.5-0.3-2-0.9C170.6 54.3 170.4 53.6 170.4 52.8zM175.5 77.6H171V58.8h4.5V77.6z" class="c"/></svg>